<svg width="433" height="878" viewBox="0 0 633 878" fill="none" xmlns="http://www.w3.org/2000/svg">
<path fill-rule="evenodd" clip-rule="evenodd" d="M271.031 68.4522C335.888 77.4938 389.692 124.453 437.925 181.438C489.431 242.291 548.477 307.638 549.969 398.006C551.477 489.385 497.786 563.204 445.23 624.054C396.224 680.793 336.485 713.937 271.031 720.962C198.47 728.749 116.566 732.06 65.4209 664.816C14.4324 597.778 25.6513 492.197 25.3948 398.006C25.1369 303.295 13.2196 197.383 63.9626 129.305C115.111 60.6823 197.881 58.2545 271.031 68.4522Z" fill="#7DBBB9"/>
<path fill-rule="evenodd" clip-rule="evenodd" d="M346.061 4.70985C447.08 -11.5616 572.016 13.1371 621.064 97.4432C667.291 176.902 565.842 257.032 544.159 345.214C522.587 432.942 583.924 558.045 497.922 598.235C412.015 638.381 334.579 530.417 254.752 480.458C196.462 443.979 125.108 417.422 107.459 353.873C89.3345 288.611 129.808 227.115 168.62 170.319C215.978 101.017 259.485 18.6548 346.061 4.70985Z" fill="#C5D7D9"/>
<path fill-rule="evenodd" clip-rule="evenodd" d="M299.963 409.108C343.049 407.696 384.815 420.182 421.197 441.844C459.469 464.632 489.605 496.275 510.043 534.192C533.503 577.718 560.633 626.191 545.742 672.911C530.771 719.879 473.499 738.836 434.422 771.443C389.486 808.939 360.144 877.416 299.963 877.997C239.858 878.576 213.227 805.651 163.477 774.057C111.055 740.766 17.1311 746.391 2.01656 688.786C-13.4351 629.896 63.789 587.035 101.465 537.716C126.448 505.014 149.433 472.471 184.742 449.595C219.324 427.189 257.939 410.486 299.963 409.108Z" fill="#EAB354"/>
<path d="M387.369 671.121C386.805 670.98 386.382 670.839 385.818 670.557C377.22 667.597 357.346 662.662 355.936 677.042C355.654 680.426 357.346 684.091 360.306 685.783C361.997 686.77 364.112 687.052 366.085 687.334C372.851 688.18 379.898 688.885 386.523 687.193C388.637 686.629 390.611 685.924 392.302 684.514C393.994 683.105 395.121 681.131 395.121 679.016C395.121 676.76 393.712 674.787 391.879 673.377C390.611 672.39 389.06 671.685 387.369 671.121Z" fill="#5F787B"/>
<path d="M469.545 671.967C468.84 671.967 467.994 671.967 467.29 671.967C461.229 671.826 455.027 671.544 448.966 670.98C444.032 670.557 439.804 675.492 439.804 680.144C439.804 691.422 460.524 693.114 468.135 690.999C470.391 690.436 472.082 689.167 473.21 687.475C479.835 684.373 478.707 672.249 469.545 671.967Z" fill="#5F787B"/>
<path d="M424.299 690.858C418.802 688.744 410.767 687.475 405.129 689.167C400.196 690.717 396.954 695.37 397.659 700.586C398.363 704.956 401.887 709.186 406.539 709.609H406.68C414.855 711.3 437.548 711.441 432.051 697.202C430.924 694.383 427.964 692.268 424.299 690.858Z" fill="#5F787B"/>
<path d="M396.39 722.156C395.544 721.733 394.558 721.31 393.571 721.028C385.255 718.349 368.34 719.618 368.763 731.742C368.904 735.831 372.146 739.355 375.811 741.047C383.563 744.431 402.592 744.008 403.579 732.306C403.861 729.628 402.592 726.808 400.619 724.975C399.491 723.848 397.941 722.861 396.39 722.156Z" fill="#5F787B"/>
<path d="M465.175 723.566L465.034 723.425C458.41 718.631 453.335 717.645 445.16 718.49C442.059 718.772 439.522 720.041 437.689 721.733C434.729 723.425 432.333 726.667 432.051 729.769C430.783 740.624 441.777 741.752 449.811 743.303C456.154 744.431 466.726 743.444 470.25 737.1C473.492 731.32 469.827 727.09 465.175 723.566Z" fill="#5F787B"/>
<path d="M433.179 751.903C432.615 751.621 432.192 751.339 431.628 751.198C423.03 747.391 404.002 745.136 401.605 758.106C400.901 761.63 402.31 765.437 405.129 767.551C407.244 769.102 409.922 769.525 412.459 769.948C417.815 770.653 423.312 770.653 428.809 770.23C430.783 770.089 432.897 769.666 434.589 768.538C437.267 766.706 438.112 763.04 437.83 759.798C437.69 757.824 437.126 755.85 435.857 754.299C435.293 753.171 434.307 752.467 433.179 751.903Z" fill="#5F787B"/>
<path d="M503.655 745.277C503.374 745.277 503.092 745.277 502.81 745.277C495.339 745.841 484.627 745.982 483.358 754.863C481.949 764.873 494.634 767.834 503.092 767.27C507.461 766.988 512.113 764.45 513.099 760.221C513.24 759.939 513.24 759.516 513.24 759.234C514.086 752.749 512.817 745.136 503.655 745.277Z" fill="#5F787B"/>
<path d="M476.874 775.305C469.545 770.23 448.684 770.512 449.248 783.2C449.952 799.272 479.834 800.541 480.821 783.482C481.103 779.817 479.553 777.138 476.874 775.305Z" fill="#5F787B"/>
</svg>